# xmcd
#
# Track frame offsets:
#	182
#	5817
#	15540
#	26965
#	36022
#	47137
#	60972
#	71055
#	81277
#	98152
#	109735
#	122172
#	132220
#	140552
#	152072
#	162902
#	176597
#	189915
#	199477
#	212525
#	224435
#	239547
#	251445
#	265120
#	278842
#	290337
#	302872
#	313740
#	325902
# Disc length: 4468 seconds
# Revision: 3
# Processed by: cddbd v1.5.1PL0 Copyright (c) Steve Scherf et al.
#
# Submitted via: libkcddb 0.10
#
DISCID=ae11721d
DTITLE=Willie Nelson - Is There Something On Your Mind
DYEAR=1979
DGENRE=Country
TTITLE0=The Ghost
TTITLE1=Let's Pretend
TTITLE2=I'm Gonna Waste A Lot Of Teardrops
TTITLE3=Wastin' Time
TTITLE4=Go Away
TTITLE5=No Tomorrow In Sight
TTITLE6=A New Way to Cry
TTITLE7=Broken Promises
TTITLE8=I Let My Mind Wonder
TTITLE9=December Days
TTITLE10=I Can't Find The Time
TTITLE11=I Didn't Sleep A Wink
TTITLE12=You Wouldn't Cross The Street To Say Goodbye
TTITLE13=Suffering In Silence
TTITLE14=I Feel Sorry For Him
TTITLE15=You'll Always Have Someone
TTITLE16=I Just Don't Understand
TTITLE17=Building Heartaches
TTITLE18=Pages
TTITLE19=Is There Something On Your Mind
TTITLE20=Face Of A Fighter
TTITLE21=I Hope So
TTITLE22=Everything But You
TTITLE23=A Moment Isn't Very Long
TTITLE24=Some Other Time
TTITLE25=Shelter Of My Arms
TTITLE26=Blame It On The Times
TTITLE27=End Of An Understanding
TTITLE28=One Step Beyond
EXTD=YEAR: 1979
EXTT0=
EXTT1=
EXTT2=
EXTT3=
EXTT4=
EXTT5=
EXTT6=
EXTT7=
EXTT8=
EXTT9=
EXTT10=
EXTT11=
EXTT12=
EXTT13=
EXTT14=
EXTT15=
EXTT16=
EXTT17=
EXTT18=
EXTT19=
EXTT20=
EXTT21=
EXTT22=
EXTT23=
EXTT24=
EXTT25=
EXTT26=
EXTT27=
EXTT28=
PLAYORDER=
